<?xml version="1.0" encoding="UTF-8"?>
<svg width="800px" height="206px" viewBox="0 0 800 206" version="1.1" xmlns="http://www.w3.org/2000/svg" xmlns:xlink="http://www.w3.org/1999/xlink">
    <!-- Generator: Sketch 51.3 (57544) - http://www.bohemiancoding.com/sketch -->
    <title>Logo_1</title>
    <desc>Created with Sketch.</desc>
    <defs></defs>
    <g id="Logo_1" stroke="none" stroke-width="1" fill="none" fill-rule="evenodd">
        <g id="Logo">
            <path d="M314.346667,81.6 L300.518788,85.8375758 C299.998381,83.0125111 298.58587,80.4476883 296.281212,78.1430303 C293.976554,75.8383723 290.593962,74.6860606 286.133333,74.6860606 C282.490487,74.6860606 279.516779,75.6711013 277.212121,77.6412121 C274.907463,79.611323 273.755152,81.9717034 273.755152,84.7224242 C273.755152,89.5547716 276.617345,92.5284793 282.341818,93.6436364 L293.381818,95.7624242 C300.370136,97.1006128 305.797152,99.8884637 309.66303,104.126061 C313.528908,108.363658 315.461818,113.344618 315.461818,119.069091 C315.461818,125.611346 312.87841,131.317147 307.711515,136.186667 C302.544621,141.056186 295.612165,143.490909 286.913939,143.490909 C281.932904,143.490909 277.435172,142.747482 273.420606,141.260606 C269.406041,139.77373 266.172133,137.785063 263.718788,135.294545 C261.265442,132.804028 259.351118,130.164862 257.975758,127.37697 C256.600397,124.589077 255.764042,121.708298 255.466667,118.734545 L269.740606,114.94303 C270.112325,119.180627 271.76645,122.711905 274.70303,125.53697 C277.639611,128.362034 281.747044,129.774545 287.025455,129.774545 C291.04002,129.774545 294.180999,128.882433 296.448485,127.098182 C298.715971,125.31393 299.849697,122.972136 299.849697,120.072727 C299.849697,117.768069 299.013342,115.779402 297.340606,114.106667 C295.66787,112.433931 293.30749,111.300205 290.259394,110.705455 L279.219394,108.475152 C272.825827,107.136963 267.770524,104.497797 264.053333,100.557576 C260.336143,96.617354 258.477576,91.7107364 258.477576,85.8375758 C258.477576,78.849258 261.172498,72.9761854 266.562424,68.2181818 C271.95235,63.4601782 278.43875,61.0812121 286.021818,61.0812121 C290.55679,61.0812121 294.608467,61.713125 298.17697,62.9769697 C301.745472,64.2408144 304.607666,65.9321106 306.763636,68.0509091 C308.919607,70.1697076 310.592317,72.3442313 311.781818,74.5745455 C312.971319,76.8048596 313.82626,79.1466544 314.346667,81.6 Z M324.048485,126.875152 C324.048485,122.191492 325.57251,118.437186 328.620606,115.612121 C331.668702,112.787057 335.608865,111.002832 340.441212,110.259394 L353.934545,108.252121 C356.685266,107.880402 358.060606,106.579405 358.060606,104.349091 C358.060606,102.267464 357.261422,100.557582 355.66303,99.2193939 C354.064638,97.8812054 351.778601,97.2121212 348.804848,97.2121212 C345.682409,97.2121212 343.210514,98.0670622 341.389091,99.7769697 C339.567668,101.486877 338.545456,103.605644 338.322424,106.133333 L325.163636,103.345455 C325.684043,98.587451 328.025838,94.3870889 332.189091,90.7442424 C336.352344,87.1013959 341.853703,85.28 348.693333,85.28 C356.871152,85.28 362.89291,87.2314956 366.758788,91.1345455 C370.624666,95.0375953 372.557576,100.037141 372.557576,106.133333 L372.557576,133.12 C372.557576,136.391127 372.780604,139.290492 373.226667,141.818182 L359.621818,141.818182 C359.250099,140.182618 359.064242,137.989509 359.064242,135.238788 C355.570084,140.665886 350.180238,143.379394 342.894545,143.379394 C337.244416,143.379394 332.690926,141.743855 329.233939,138.472727 C325.776952,135.2016 324.048485,131.33578 324.048485,126.875152 Z M346.01697,132.339394 C349.511129,132.339394 352.391908,131.354353 354.659394,129.384242 C356.92688,127.414132 358.060606,124.161639 358.060606,119.626667 L358.060606,117.173333 L345.682424,119.069091 C341.147452,119.738185 338.88,122.042809 338.88,125.98303 C338.88,127.767282 339.511913,129.272721 340.775758,130.499394 C342.039602,131.726067 343.786656,132.339394 346.01697,132.339394 Z M402.332121,110.259394 L402.332121,141.818182 L387.500606,141.818182 L387.500606,86.9527273 L401.886061,86.9527273 L401.886061,93.7551515 C403.447281,91.0787745 405.677561,89.0343505 408.57697,87.6218182 C411.476378,86.2092859 414.524428,85.5030303 417.721212,85.5030303 C424.189123,85.5030303 429.114327,87.5288686 432.49697,91.5806061 C435.879613,95.6323435 437.570909,100.854918 437.570909,107.248485 L437.570909,141.818182 L422.739394,141.818182 L422.739394,109.813333 C422.739394,106.542206 421.903039,103.90304 420.230303,101.895758 C418.557567,99.8884748 416.01133,98.8848485 412.591515,98.8848485 C409.469075,98.8848485 406.978595,99.9628175 405.12,102.118788 C403.261405,104.274758 402.332121,106.988266 402.332121,110.259394 Z M504.926061,61.0812121 L504.926061,131.893333 C504.926061,135.53618 505.074746,138.84443 505.372121,141.818182 L491.209697,141.818182 C490.837978,139.959587 490.652121,137.84082 490.652121,135.461818 C489.388277,137.766476 487.39961,139.625043 484.686061,141.037576 C481.972512,142.450108 478.831533,143.156364 475.26303,143.156364 C467.456931,143.156364 461.044874,140.42427 456.026667,134.96 C451.00846,129.49573 448.499394,122.600446 448.499394,114.273939 C448.499394,106.170465 450.971288,99.3681083 455.915152,93.8666667 C460.859015,88.365225 467.159558,85.6145455 474.81697,85.6145455 C482.697413,85.6145455 487.86423,87.8819975 490.317576,92.4169697 L490.317576,61.0812121 L504.926061,61.0812121 Z M463.442424,114.273939 C463.442424,119.106287 464.70625,122.91635 467.233939,125.704242 C469.761629,128.492135 473.032707,129.886061 477.047273,129.886061 C480.987494,129.886061 484.221402,128.473549 486.749091,125.648485 C489.27678,122.82342 490.540606,118.994772 490.540606,114.162424 C490.540606,109.404421 489.27678,105.6687 486.749091,102.955152 C484.221402,100.241603 480.987494,98.8848485 477.047273,98.8848485 C473.107051,98.8848485 469.854558,100.260188 467.289697,103.010909 C464.724836,105.76163 463.442424,109.515936 463.442424,114.273939 Z M535.369697,141.818182 L520.984242,141.818182 L520.984242,61.0812121 L535.592727,61.0812121 L535.592727,92.9745455 C536.930916,90.8929189 539.068268,89.12728 542.004848,87.6775758 C544.941429,86.2278715 548.342607,85.5030303 552.208485,85.5030303 C560.014584,85.5030303 566.185028,88.1793672 570.72,93.5321212 C575.254972,98.8848752 577.522424,105.761574 577.522424,114.162424 C577.522424,122.563274 575.143458,129.49573 570.385455,134.96 C565.627451,140.42427 559.382665,143.156364 551.650909,143.156364 C544.142185,143.156364 538.715168,140.480027 535.369697,135.127273 L535.369697,141.818182 Z M558.787879,125.76 C561.389912,122.934935 562.690909,119.106287 562.690909,114.273939 C562.690909,109.441592 561.408498,105.650115 558.843636,102.899394 C556.278775,100.148673 553.026282,98.7733333 549.086061,98.7733333 C545.145839,98.7733333 541.87476,100.148673 539.272727,102.899394 C536.670694,105.650115 535.369697,109.441592 535.369697,114.273939 C535.369697,119.106287 536.68928,122.91635 539.328485,125.704242 C541.96769,128.492135 545.220183,129.886061 549.086061,129.886061 C553.026282,129.886061 556.260189,128.510721 558.787879,125.76 Z M604.06303,141.818182 L589.231515,141.818182 L589.231515,61.0812121 L604.06303,61.0812121 L604.06303,141.818182 Z M634.618182,125.871515 C637.368903,128.622236 640.677152,129.997576 644.54303,129.997576 C648.408908,129.997576 651.698572,128.622236 654.412121,125.871515 C657.12567,123.120794 658.482424,119.292146 658.482424,114.385455 C658.482424,109.478763 657.12567,105.650115 654.412121,102.899394 C651.698572,100.148673 648.408908,98.7733333 644.54303,98.7733333 C640.677152,98.7733333 637.387488,100.148673 634.673939,102.899394 C631.96039,105.650115 630.603636,109.478763 630.603636,114.385455 C630.603636,119.292146 631.941805,123.120794 634.618182,125.871515 Z M623.912727,93.5321212 C629.414169,88.0306796 636.290868,85.28 644.54303,85.28 C652.795193,85.28 659.653306,88.0306796 665.117576,93.5321212 C670.581846,99.0335629 673.313939,105.984604 673.313939,114.385455 C673.313939,122.786305 670.581846,129.737346 665.117576,135.238788 C659.653306,140.74023 652.795193,143.490909 644.54303,143.490909 C636.290868,143.490909 629.432755,140.74023 623.968485,135.238788 C618.504215,129.737346 615.772121,122.786305 615.772121,114.385455 C615.772121,105.984604 618.485629,99.0335629 623.912727,93.5321212 Z M709.667879,98.9963636 C705.727657,98.9963636 702.419407,100.371703 699.74303,103.122424 C697.066653,105.873145 695.728485,109.627451 695.728485,114.385455 C695.728485,119.143458 697.085239,122.91635 699.798788,125.704242 C702.512337,128.492135 705.839172,129.886061 709.779394,129.886061 C713.273553,129.886061 716.061404,128.975363 718.14303,127.153939 C720.224657,125.332516 721.637168,123.157992 722.380606,120.630303 L735.427879,124.979394 C734.08969,130.034773 731.190325,134.38382 726.729697,138.026667 C722.269069,141.669513 716.619024,143.490909 709.779394,143.490909 C701.601575,143.490909 694.743462,140.721644 689.204848,135.18303 C683.666235,129.644417 680.89697,122.711961 680.89697,114.385455 C680.89697,105.984604 683.629064,99.0335629 689.093333,93.5321212 C694.557603,88.0306796 701.304202,85.28 709.333333,85.28 C716.321651,85.28 722.046038,87.0828103 726.506667,90.6884848 C730.967295,94.2941594 733.829489,98.6617925 735.093333,103.791515 L721.82303,108.252121 C720.038779,102.081585 715.987102,98.9963636 709.667879,98.9963636 Z M799.549091,86.9527273 L777.580606,110.036364 L799.995152,141.818182 L781.818182,141.818182 L767.321212,120.853333 L761.187879,127.321212 L761.187879,141.818182 L746.356364,141.818182 L746.356364,61.0812121 L761.187879,61.0812121 L761.187879,107.36 L780.145455,86.9527273 L799.549091,86.9527273 Z" id="Sandblock" fill="#FFFFFF"></path>
            <g id="Shape" fill="#FFFFFF">
                <path d="M103.030303,206.060606 C46.1282379,206.060606 0,159.932368 0,103.030303 C0,46.1282379 46.1282379,0 103.030303,0 C159.932368,0 206.060606,46.1282379 206.060606,103.030303 C206.060606,159.932368 159.932368,206.060606 103.030303,206.060606 Z M47.6320999,71.4479427 L47.6320999,97.3349536 L94.9270474,123.855575 C99.9605177,126.678087 106.100088,126.678087 111.133559,123.855575 L158.428506,97.3349536 L158.428506,71.4479427 L111.133559,97.968564 C106.100088,100.791077 99.9605177,100.791077 94.9270474,97.968564 L47.6320999,71.4479427 Z M58.3942622,65.0570611 L81.4768814,78.0005665 L94.9270474,70.4584376 C99.9605177,67.6359251 106.100088,67.6359251 111.133559,70.4584376 L124.583725,78.0005665 L147.666344,65.0570611 L111.133559,44.5712197 C106.100088,41.7485001 99.9605177,41.7485001 94.9270474,44.5712197 L58.3942622,65.0570611 Z M47.6320999,109.760719 L47.6320999,135.64773 L94.9270474,162.168247 C99.9605177,164.990863 106.100088,164.990863 111.133559,162.168247 L158.428506,135.64773 L158.428506,109.760719 L111.133559,136.28134 C106.100088,139.103853 99.9605177,139.103853 94.9270474,136.28134 L47.6320999,109.760719 Z" id="Combined-Shape"></path>
            </g>
        </g>
    </g>
</svg>